<svg xmlns="http://www.w3.org/2000/svg" fill="none" viewBox="0 0 237 311"><g opacity=".9"><path fill="#fff" d="M17.827 107.915v54.739h-64.304c-12.439 0-22.523-10.331-22.523-23.075v-31.664h86.827zM15.94 162.654h69.838v119.91c0 38.021-31.268 68.844-69.839 68.844V162.654z"/><path fill="#4A7DFF" d="M135.064 207.955c32.201 0 58.304 26.197 58.304 58.513H-10.696c-32.2 0-58.304-26.197-58.304-58.513h204.064z"/><path fill="#175EA2" fill-opacity=".09" d="M-1.048 107.915H15.94v54.739H-1.048v-54.739z"/><path fill="#DAEDFF" d="M85.778 266.468v16.988H15.94v-16.988h69.84z"/><path fill="#fff" fill-rule="evenodd" d="M16.02 72.052C18.01 25.85 56.332-11 103.315-11h46.093c48.256 0 87.375 38.874 87.375 86.827 0 47.953-39.119 86.827-87.375 86.827h-46.093c-1.45 0-2.891-.035-4.323-.105v.105H15.94V76.031v-.204V72.052h.08zm124.862-28.314H85.779v66.064h55.103c18.563 0 33.611-14.789 33.611-33.032 0-18.243-15.048-33.032-33.611-33.032z" clip-rule="evenodd"/></g></svg>