<svg xmlns="http://www.w3.org/2000/svg" fill="none" viewBox="0 0 52 50"><rect width="50" height="48" x="1" y="1" fill="#fff" rx="24"/><path fill="url(#paint0_linear)" fill-rule="evenodd" d="M16.22 21.777l-2.497-2.026 3.1-1.099-1.643-2.754 3.302-.006-.558-3.132 3.109 1.079.578-3.125 2.537 2.033L25.813 10l1.658 2.747 2.536-2.033.586 3.124 3.108-1.078-.564 3.132 3.308.007-1.643 2.753 3.101 1.099-2.497 2.026c.21.135.379.322.489.542l1.987 3.956 2.922.219c.108.009.212.042.305.095a.701.701 0 0 1 .231.214l.6.845-2.444.873.122.136c.23.25.357.573.357.906v9.703a.673.673 0 0 1-.21.486.73.73 0 0 1-.504.2h-3.523a.73.73 0 0 1-.505-.2.673.673 0 0 1-.21-.486v-1.669H16.61v1.67a.673.673 0 0 1-.209.485.73.73 0 0 1-.505.2h-3.523a.73.73 0 0 1-.505-.2.673.673 0 0 1-.21-.486V29.57a1.343 1.343 0 0 1 .365-.947l.18-.191L10 27.648l.565-.825a.703.703 0 0 1 .234-.215.734.734 0 0 1 .309-.093l2.612-.197 2.01-4c.111-.219.28-.406.49-.541zm22.198 5.54l-.075-.123.046.09.03.032z" clip-rule="evenodd"/><path fill="#fff" d="M14.538 27.648l2.244-4.587a.695.695 0 0 1 .266-.287.736.736 0 0 1 .384-.105h16.985c.144 0 .284.043.403.121.118.079.21.19.261.319l1.837 4.539s-6.903-.687-11.069-.687c-4.165 0-11.31.687-11.31.687zM13.016 30.504v1.048a.38.38 0 0 0 .335.372l4.424.62c.063.008.11-.055.081-.11l-.701-1.318a1.163 1.163 0 0 0-.716-.57l-2.501-.701a.743.743 0 0 0-.634.106.695.695 0 0 0-.212.244.665.665 0 0 0-.076.31zM38.618 30.504v1.048a.38.38 0 0 1-.335.372l-4.424.619c-.063.009-.11-.054-.081-.108l.697-1.32c.145-.276.402-.483.71-.571l2.511-.72a.743.743 0 0 1 .643.112c.09.067.163.153.211.252a.665.665 0 0 1 .068.316zM32.318 33.173a.157.157 0 0 1-.138.078H19.503a.158.158 0 0 1-.136-.078l-1.33-2.3a.075.075 0 0 1 .056-.11c2.578-.378 5.165-.605 7.714-.605 2.549 0 5.214.224 7.764.604a.075.075 0 0 1 .056.11l-1.31 2.3z"/><path fill="#0FE2FF" d="M18.47 19.497h6.074v1.373h-6.073a.73.73 0 0 1-.506-.201.674.674 0 0 1-.209-.486c0-.182.075-.357.21-.485a.73.73 0 0 1 .505-.201z"/><path fill="#FB4EFF" d="M27.045 19.497h6.074a.73.73 0 0 1 .505.2c.134.13.21.304.21.486a.673.673 0 0 1-.21.486.73.73 0 0 1-.505.201h-6.074v-1.373z"/><rect width="50" height="48" x="1" y="1" stroke="#61A4FF" stroke-width="2" rx="24"/><defs><linearGradient id="paint0_linear" x1="25.97" x2="25.97" y1="10" y2="39.953" gradientUnits="userSpaceOnUse"><stop stop-color="#0185FF"/><stop offset="1" stop-color="#0029FF"/></linearGradient></defs></svg>