<svg xmlns="http://www.w3.org/2000/svg" fill="none" viewBox="0 0 60 72"><g opacity=".9"><path fill="#fff" d="M17.037 23.625V34.5H4.419C1.98 34.5 0 32.448 0 29.916v-6.29h17.038zM16.666 34.5H30.37v23.823C30.37 65.876 24.235 72 16.666 72V34.5z"/><path fill="#4A7DFF" d="M40.04 43.5c6.319 0 11.441 5.205 11.441 11.625h-40.04C5.121 55.125 0 49.92 0 43.5h40.04z"/><path fill="#175EA2" fill-opacity=".09" d="M13.333 23.625h3.333V34.5h-3.333V23.625z"/><path fill="#DAEDFF" d="M30.37 55.125V58.5H16.667v-3.375H30.37z"/><path fill="#fff" fill-rule="evenodd" d="M16.683 16.5C17.073 7.32 24.593 0 33.81 0h9.044C52.325 0 60 7.723 60 17.25c0 9.527-7.676 17.25-17.145 17.25h-9.044c-.285 0-.568-.007-.849-.02v.02H16.666v-18h.017zm13.687-5.625V24h10.812c3.642 0 6.595-2.938 6.595-6.563 0-3.624-2.953-6.562-6.595-6.562H30.37z" clip-rule="evenodd"/></g></svg>