<svg xmlns="http://www.w3.org/2000/svg" width="200" height="200" baseProfile="tiny"><path fill="#fff" d="M0 0h200v200H0z" shape-rendering="optimizeSpeed"/><path d="M13 13h6v6h-6zM19 13h6v6h-6zM25 13h6v6h-6zM31 13h6v6h-6zM37 13h6v6h-6zM43 13h6v6h-6zM49 13h6v6h-6zM67 13h6v6h-6zM109 13h6v6h-6zM121 13h6v6h-6zM127 13h6v6h-6zM133 13h6v6h-6zM145 13h6v6h-6zM151 13h6v6h-6zM157 13h6v6h-6zM163 13h6v6h-6zM169 13h6v6h-6zM175 13h6v6h-6zM181 13h6v6h-6zM13 19h6v6h-6zM49 19h6v6h-6zM61 19h6v6h-6zM67 19h6v6h-6zM79 19h6v6h-6zM85 19h6v6h-6zM91 19h6v6h-6zM103 19h6v6h-6zM109 19h6v6h-6zM121 19h6v6h-6zM145 19h6v6h-6zM181 19h6v6h-6zM13 25h6v6h-6zM25 25h6v6h-6zM31 25h6v6h-6zM37 25h6v6h-6zM49 25h6v6h-6zM67 25h6v6h-6zM73 25h6v6h-6zM79 25h6v6h-6zM103 25h6v6h-6zM127 25h6v6h-6zM133 25h6v6h-6zM145 25h6v6h-6zM157 25h6v6h-6zM163 25h6v6h-6zM169 25h6v6h-6zM181 25h6v6h-6zM13 31h6v6h-6zM25 31h6v6h-6zM31 31h6v6h-6zM37 31h6v6h-6zM49 31h6v6h-6zM61 31h6v6h-6zM67 31h6v6h-6zM79 31h6v6h-6zM91 31h6v6h-6zM97 31h6v6h-6zM115 31h6v6h-6zM127 31h6v6h-6zM145 31h6v6h-6zM157 31h6v6h-6zM163 31h6v6h-6zM169 31h6v6h-6zM181 31h6v6h-6zM13 37h6v6h-6zM25 37h6v6h-6zM31 37h6v6h-6zM37 37h6v6h-6zM49 37h6v6h-6zM73 37h6v6h-6zM85 37h6v6h-6zM109 37h6v6h-6zM127 37h6v6h-6zM145 37h6v6h-6zM157 37h6v6h-6zM163 37h6v6h-6zM169 37h6v6h-6zM181 37h6v6h-6zM13 43h6v6h-6zM49 43h6v6h-6zM61 43h6v6h-6zM73 43h6v6h-6zM97 43h6v6h-6zM103 43h6v6h-6zM109 43h6v6h-6zM121 43h6v6h-6zM145 43h6v6h-6zM181 43h6v6h-6zM13 49h6v6h-6zM19 49h6v6h-6zM25 49h6v6h-6zM31 49h6v6h-6zM37 49h6v6h-6zM43 49h6v6h-6zM49 49h6v6h-6zM61 49h6v6h-6zM73 49h6v6h-6zM85 49h6v6h-6zM97 49h6v6h-6zM109 49h6v6h-6zM121 49h6v6h-6zM133 49h6v6h-6zM145 49h6v6h-6zM151 49h6v6h-6zM157 49h6v6h-6zM163 49h6v6h-6zM169 49h6v6h-6zM175 49h6v6h-6zM181 49h6v6h-6zM85 55h6v6h-6zM109 55h6v6h-6zM121 55h6v6h-6zM133 55h6v6h-6zM13 61h6v6h-6zM19 61h6v6h-6zM25 61h6v6h-6zM31 61h6v6h-6zM37 61h6v6h-6zM49 61h6v6h-6zM55 61h6v6h-6zM61 61h6v6h-6zM67 61h6v6h-6zM73 61h6v6h-6zM85 61h6v6h-6zM91 61h6v6h-6zM97 61h6v6h-6zM103 61h6v6h-6zM115 61h6v6h-6zM133 61h6v6h-6zM139 61h6v6h-6zM151 61h6v6h-6zM163 61h6v6h-6zM175 61h6v6h-6zM25 67h6v6h-6zM55 67h6v6h-6zM67 67h6v6h-6zM109 67h6v6h-6zM127 67h6v6h-6zM133 67h6v6h-6zM139 67h6v6h-6zM145 67h6v6h-6zM151 67h6v6h-6zM157 67h6v6h-6zM181 67h6v6h-6zM19 73h6v6h-6zM31 73h6v6h-6zM37 73h6v6h-6zM49 73h6v6h-6zM67 73h6v6h-6zM79 73h6v6h-6zM85 73h6v6h-6zM97 73h6v6h-6zM103 73h6v6h-6zM109 73h6v6h-6zM121 73h6v6h-6zM145 73h6v6h-6zM157 73h6v6h-6zM13 79h6v6h-6zM19 79h6v6h-6zM31 79h6v6h-6zM37 79h6v6h-6zM55 79h6v6h-6zM67 79h6v6h-6zM73 79h6v6h-6zM79 79h6v6h-6zM103 79h6v6h-6zM121 79h6v6h-6zM127 79h6v6h-6zM133 79h6v6h-6zM139 79h6v6h-6zM157 79h6v6h-6zM163 79h6v6h-6zM175 79h6v6h-6zM19 85h6v6h-6zM43 85h6v6h-6zM49 85h6v6h-6zM67 85h6v6h-6zM79 85h6v6h-6zM109 85h6v6h-6zM115 85h6v6h-6zM121 85h6v6h-6zM127 85h6v6h-6zM151 85h6v6h-6zM163 85h6v6h-6zM169 85h6v6h-6zM19 91h6v6h-6zM25 91h6v6h-6zM31 91h6v6h-6zM37 91h6v6h-6zM43 91h6v6h-6zM61 91h6v6h-6zM73 91h6v6h-6zM85 91h6v6h-6zM91 91h6v6h-6zM109 91h6v6h-6zM115 91h6v6h-6zM121 91h6v6h-6zM127 91h6v6h-6zM133 91h6v6h-6zM139 91h6v6h-6zM145 91h6v6h-6zM151 91h6v6h-6zM157 91h6v6h-6zM181 91h6v6h-6zM25 97h6v6h-6zM31 97h6v6h-6zM37 97h6v6h-6zM49 97h6v6h-6zM55 97h6v6h-6zM67 97h6v6h-6zM91 97h6v6h-6zM97 97h6v6h-6zM103 97h6v6h-6zM109 97h6v6h-6zM115 97h6v6h-6zM133 97h6v6h-6zM151 97h6v6h-6zM157 97h6v6h-6zM163 97h6v6h-6zM169 97h6v6h-6zM13 103h6v6h-6zM31 103h6v6h-6zM73 103h6v6h-6zM85 103h6v6h-6zM91 103h6v6h-6zM103 103h6v6h-6zM121 103h6v6h-6zM133 103h6v6h-6zM151 103h6v6h-6zM175 103h6v6h-6zM37 109h6v6h-6zM49 109h6v6h-6zM55 109h6v6h-6zM67 109h6v6h-6zM73 109h6v6h-6zM85 109h6v6h-6zM97 109h6v6h-6zM103 109h6v6h-6zM115 109h6v6h-6zM163 109h6v6h-6zM169 109h6v6h-6zM13 115h6v6h-6zM19 115h6v6h-6zM43 115h6v6h-6zM55 115h6v6h-6zM67 115h6v6h-6zM109 115h6v6h-6zM115 115h6v6h-6zM121 115h6v6h-6zM127 115h6v6h-6zM133 115h6v6h-6zM145 115h6v6h-6zM151 115h6v6h-6zM157 115h6v6h-6zM169 115h6v6h-6zM181 115h6v6h-6zM13 121h6v6h-6zM37 121h6v6h-6zM43 121h6v6h-6zM49 121h6v6h-6zM55 121h6v6h-6zM79 121h6v6h-6zM85 121h6v6h-6zM103 121h6v6h-6zM133 121h6v6h-6zM139 121h6v6h-6zM151 121h6v6h-6zM157 121h6v6h-6zM169 121h6v6h-6zM13 127h6v6h-6zM31 127h6v6h-6zM55 127h6v6h-6zM79 127h6v6h-6zM97 127h6v6h-6zM103 127h6v6h-6zM121 127h6v6h-6zM133 127h6v6h-6zM139 127h6v6h-6zM175 127h6v6h-6zM13 133h6v6h-6zM25 133h6v6h-6zM31 133h6v6h-6zM37 133h6v6h-6zM49 133h6v6h-6zM55 133h6v6h-6zM61 133h6v6h-6zM67 133h6v6h-6zM79 133h6v6h-6zM103 133h6v6h-6zM109 133h6v6h-6zM115 133h6v6h-6zM127 133h6v6h-6zM133 133h6v6h-6zM139 133h6v6h-6zM145 133h6v6h-6zM151 133h6v6h-6zM157 133h6v6h-6zM169 133h6v6h-6zM175 133h6v6h-6zM181 133h6v6h-6zM61 139h6v6h-6zM67 139h6v6h-6zM85 139h6v6h-6zM91 139h6v6h-6zM97 139h6v6h-6zM109 139h6v6h-6zM115 139h6v6h-6zM121 139h6v6h-6zM133 139h6v6h-6zM157 139h6v6h-6zM163 139h6v6h-6zM169 139h6v6h-6zM175 139h6v6h-6zM181 139h6v6h-6zM13 145h6v6h-6zM19 145h6v6h-6zM25 145h6v6h-6zM31 145h6v6h-6zM37 145h6v6h-6zM43 145h6v6h-6zM49 145h6v6h-6zM61 145h6v6h-6zM73 145h6v6h-6zM91 145h6v6h-6zM97 145h6v6h-6zM103 145h6v6h-6zM109 145h6v6h-6zM121 145h6v6h-6zM127 145h6v6h-6zM133 145h6v6h-6zM145 145h6v6h-6zM157 145h6v6h-6zM163 145h6v6h-6zM169 145h6v6h-6zM13 151h6v6h-6zM49 151h6v6h-6zM67 151h6v6h-6zM85 151h6v6h-6zM91 151h6v6h-6zM109 151h6v6h-6zM127 151h6v6h-6zM133 151h6v6h-6zM157 151h6v6h-6zM181 151h6v6h-6zM13 157h6v6h-6zM25 157h6v6h-6zM31 157h6v6h-6zM37 157h6v6h-6zM49 157h6v6h-6zM61 157h6v6h-6zM67 157h6v6h-6zM85 157h6v6h-6zM97 157h6v6h-6zM115 157h6v6h-6zM133 157h6v6h-6zM139 157h6v6h-6zM145 157h6v6h-6zM151 157h6v6h-6zM157 157h6v6h-6zM169 157h6v6h-6zM13 163h6v6h-6zM25 163h6v6h-6zM31 163h6v6h-6zM37 163h6v6h-6zM49 163h6v6h-6zM61 163h6v6h-6zM115 163h6v6h-6zM121 163h6v6h-6zM127 163h6v6h-6zM163 163h6v6h-6zM169 163h6v6h-6zM175 163h6v6h-6zM181 163h6v6h-6zM13 169h6v6h-6zM25 169h6v6h-6zM31 169h6v6h-6zM37 169h6v6h-6zM49 169h6v6h-6zM61 169h6v6h-6zM67 169h6v6h-6zM73 169h6v6h-6zM79 169h6v6h-6zM85 169h6v6h-6zM103 169h6v6h-6zM109 169h6v6h-6zM115 169h6v6h-6zM133 169h6v6h-6zM139 169h6v6h-6zM145 169h6v6h-6zM151 169h6v6h-6zM157 169h6v6h-6zM163 169h6v6h-6zM169 169h6v6h-6zM175 169h6v6h-6zM13 175h6v6h-6zM49 175h6v6h-6zM61 175h6v6h-6zM79 175h6v6h-6zM97 175h6v6h-6zM121 175h6v6h-6zM127 175h6v6h-6zM133 175h6v6h-6zM139 175h6v6h-6zM151 175h6v6h-6zM163 175h6v6h-6zM175 175h6v6h-6zM13 181h6v6h-6zM19 181h6v6h-6zM25 181h6v6h-6zM31 181h6v6h-6zM37 181h6v6h-6zM43 181h6v6h-6zM49 181h6v6h-6zM61 181h6v6h-6zM67 181h6v6h-6zM79 181h6v6h-6zM115 181h6v6h-6zM127 181h6v6h-6zM157 181h6v6h-6zM163 181h6v6h-6zM169 181h6v6h-6z" shape-rendering="optimizeSpeed"/></svg>