<svg xmlns="http://www.w3.org/2000/svg" fill="none" viewBox="0 0 40 30"><path fill="#96A9B2" d="M39.986 27.204c.152-.41-17.259-13.556-17.259-13.556-2.18-1.609-3.326-1.634-5.482 0 0 0-17.385 13.135-17.239 13.54l-.003.002.007.01c.147.401.362.775.634 1.106.115.14.254.256.387.377l-.006.006c.01.009.025.013.035.023a3.75 3.75 0 0 0 2.07.924c.013.001.023.008.035.01h.048c.12.01.235.04.358.04H36.44a3.784 3.784 0 0 0 3.534-2.445c.007-.01.017-.018.023-.03l-.01-.007z"/><path fill="#B9C5C6" d="M20.01 12.139L.096 27.075V5.915A3.734 3.734 0 0 1 3.83 2.181h32.363a3.734 3.734 0 0 1 3.734 3.734v21.16L20.011 12.14z"/><path fill="#EDECE6" d="M.327 4.617l17.004 13.355c2.146 1.584 3.274 1.61 5.397 0L39.705 4.638c-.295-.534-.736-.955-1.24-1.292l.233-.183a3.702 3.702 0 0 0-2.107-.942l-33.16.001a3.698 3.698 0 0 0-2.105.941l.232.18c-.499.333-.936.747-1.23 1.274z"/><path fill="#DCE2E2" d="M.322 4.645c-.15.403 16.993 13.347 16.993 13.347 2.146 1.584 3.275 1.609 5.397 0 0 0 17.118-12.933 16.973-13.331l.004-.003-.007-.009a3.729 3.729 0 0 0-.625-1.089c-.113-.137-.25-.252-.38-.372l.006-.005c-.01-.01-.025-.014-.035-.023a3.692 3.692 0 0 0-2.038-.91c-.012-.001-.022-.008-.034-.01h-.047c-.119-.01-.232-.039-.353-.039H3.814a3.726 3.726 0 0 0-3.48 2.407c-.007.01-.017.018-.022.029l.01.008z"/></svg>